<svg xmlns="http://www.w3.org/2000/svg" version="1.1" xmlns:xlink="http://www.w3.org/1999/xlink" xmlns:svgjs="http://svgjs.dev/svgjs" viewBox="0 0 2400 800" opacity="0.87"><defs><linearGradient x1="50%" y1="0%" x2="50%" y2="100%" id="sssurf-grad"><stop stop-color="hsl(180, 69%, 40%)" stop-opacity="1" offset="0%"></stop><stop stop-color="hsl(180, 69%, 60%)" stop-opacity="1" offset="100%"></stop></linearGradient></defs><g fill="url(#sssurf-grad)" transform="matrix(1,0,0,1,10.1300048828125,-3.4073562622070312)"><path d="M-10,10C25.416666666666664,16.458333333333336,91.25,45.166666666666664,160,41C228.75,36.833333333333336,253.33333333333331,-13.75,320,-10C386.6666666666667,-6.25,413.3333333333333,60.25,480,59C546.6666666666666,57.75,573.3333333333334,-11.208333333333332,640,-16C706.6666666666666,-20.791666666666668,733.3333333333334,36.208333333333336,800,36C866.6666666666666,35.791666666666664,893.3333333333334,-15.333333333333334,960,-17C1026.6666666666667,-18.666666666666668,1053.3333333333333,27.166666666666668,1120,28C1186.6666666666667,28.833333333333332,1213.3333333333333,-25.291666666666668,1280,-13C1346.6666666666667,-0.7083333333333321,1373.3333333333333,94.08333333333333,1440,87C1506.6666666666667,79.91666666666667,1533.3333333333333,-41.791666666666664,1600,-47C1666.6666666666667,-52.208333333333336,1693.3333333333333,54.083333333333336,1760,62C1826.6666666666667,69.91666666666667,1853.3333333333333,-12.333333333333332,1920,-9C1986.6666666666667,-5.666666666666667,2013.3333333333333,75.08333333333333,2080,78C2146.6666666666665,80.91666666666667,2173.3333333333335,10.208333333333334,2240,5C2306.6666666666665,-0.20833333333333393,2314.5833333333335,-29.291666666666657,2400,53C2485.4166666666665,135.29166666666666,3254.1666666666665,223.54166666666669,2650,400C2045.8333333333335,576.4583333333333,156.25,795.8333333333334,-500,900" transform="matrix(1,0,0,1,0,58)" opacity="0.05"></path><path d="M-10,10C25.416666666666664,16.458333333333336,91.25,45.166666666666664,160,41C228.75,36.833333333333336,253.33333333333331,-13.75,320,-10C386.6666666666667,-6.25,413.3333333333333,60.25,480,59C546.6666666666666,57.75,573.3333333333334,-11.208333333333332,640,-16C706.6666666666666,-20.791666666666668,733.3333333333334,36.208333333333336,800,36C866.6666666666666,35.791666666666664,893.3333333333334,-15.333333333333334,960,-17C1026.6666666666667,-18.666666666666668,1053.3333333333333,27.166666666666668,1120,28C1186.6666666666667,28.833333333333332,1213.3333333333333,-25.291666666666668,1280,-13C1346.6666666666667,-0.7083333333333321,1373.3333333333333,94.08333333333333,1440,87C1506.6666666666667,79.91666666666667,1533.3333333333333,-41.791666666666664,1600,-47C1666.6666666666667,-52.208333333333336,1693.3333333333333,54.083333333333336,1760,62C1826.6666666666667,69.91666666666667,1853.3333333333333,-12.333333333333332,1920,-9C1986.6666666666667,-5.666666666666667,2013.3333333333333,75.08333333333333,2080,78C2146.6666666666665,80.91666666666667,2173.3333333333335,10.208333333333334,2240,5C2306.6666666666665,-0.20833333333333393,2314.5833333333335,-29.291666666666657,2400,53C2485.4166666666665,135.29166666666666,3254.1666666666665,223.54166666666669,2650,400C2045.8333333333335,576.4583333333333,156.25,795.8333333333334,-500,900" transform="matrix(1,0,0,1,0,116)" opacity="0.14"></path><path d="M-10,10C25.416666666666664,16.458333333333336,91.25,45.166666666666664,160,41C228.75,36.833333333333336,253.33333333333331,-13.75,320,-10C386.6666666666667,-6.25,413.3333333333333,60.25,480,59C546.6666666666666,57.75,573.3333333333334,-11.208333333333332,640,-16C706.6666666666666,-20.791666666666668,733.3333333333334,36.208333333333336,800,36C866.6666666666666,35.791666666666664,893.3333333333334,-15.333333333333334,960,-17C1026.6666666666667,-18.666666666666668,1053.3333333333333,27.166666666666668,1120,28C1186.6666666666667,28.833333333333332,1213.3333333333333,-25.291666666666668,1280,-13C1346.6666666666667,-0.7083333333333321,1373.3333333333333,94.08333333333333,1440,87C1506.6666666666667,79.91666666666667,1533.3333333333333,-41.791666666666664,1600,-47C1666.6666666666667,-52.208333333333336,1693.3333333333333,54.083333333333336,1760,62C1826.6666666666667,69.91666666666667,1853.3333333333333,-12.333333333333332,1920,-9C1986.6666666666667,-5.666666666666667,2013.3333333333333,75.08333333333333,2080,78C2146.6666666666665,80.91666666666667,2173.3333333333335,10.208333333333334,2240,5C2306.6666666666665,-0.20833333333333393,2314.5833333333335,-29.291666666666657,2400,53C2485.4166666666665,135.29166666666666,3254.1666666666665,223.54166666666669,2650,400C2045.8333333333335,576.4583333333333,156.25,795.8333333333334,-500,900" transform="matrix(1,0,0,1,0,174)" opacity="0.22"></path><path d="M-10,10C25.416666666666664,16.458333333333336,91.25,45.166666666666664,160,41C228.75,36.833333333333336,253.33333333333331,-13.75,320,-10C386.6666666666667,-6.25,413.3333333333333,60.25,480,59C546.6666666666666,57.75,573.3333333333334,-11.208333333333332,640,-16C706.6666666666666,-20.791666666666668,733.3333333333334,36.208333333333336,800,36C866.6666666666666,35.791666666666664,893.3333333333334,-15.333333333333334,960,-17C1026.6666666666667,-18.666666666666668,1053.3333333333333,27.166666666666668,1120,28C1186.6666666666667,28.833333333333332,1213.3333333333333,-25.291666666666668,1280,-13C1346.6666666666667,-0.7083333333333321,1373.3333333333333,94.08333333333333,1440,87C1506.6666666666667,79.91666666666667,1533.3333333333333,-41.791666666666664,1600,-47C1666.6666666666667,-52.208333333333336,1693.3333333333333,54.083333333333336,1760,62C1826.6666666666667,69.91666666666667,1853.3333333333333,-12.333333333333332,1920,-9C1986.6666666666667,-5.666666666666667,2013.3333333333333,75.08333333333333,2080,78C2146.6666666666665,80.91666666666667,2173.3333333333335,10.208333333333334,2240,5C2306.6666666666665,-0.20833333333333393,2314.5833333333335,-29.291666666666657,2400,53C2485.4166666666665,135.29166666666666,3254.1666666666665,223.54166666666669,2650,400C2045.8333333333335,576.4583333333333,156.25,795.8333333333334,-500,900" transform="matrix(1,0,0,1,0,232)" opacity="0.31"></path><path d="M-10,10C25.416666666666664,16.458333333333336,91.25,45.166666666666664,160,41C228.75,36.833333333333336,253.33333333333331,-13.75,320,-10C386.6666666666667,-6.25,413.3333333333333,60.25,480,59C546.6666666666666,57.75,573.3333333333334,-11.208333333333332,640,-16C706.6666666666666,-20.791666666666668,733.3333333333334,36.208333333333336,800,36C866.6666666666666,35.791666666666664,893.3333333333334,-15.333333333333334,960,-17C1026.6666666666667,-18.666666666666668,1053.3333333333333,27.166666666666668,1120,28C1186.6666666666667,28.833333333333332,1213.3333333333333,-25.291666666666668,1280,-13C1346.6666666666667,-0.7083333333333321,1373.3333333333333,94.08333333333333,1440,87C1506.6666666666667,79.91666666666667,1533.3333333333333,-41.791666666666664,1600,-47C1666.6666666666667,-52.208333333333336,1693.3333333333333,54.083333333333336,1760,62C1826.6666666666667,69.91666666666667,1853.3333333333333,-12.333333333333332,1920,-9C1986.6666666666667,-5.666666666666667,2013.3333333333333,75.08333333333333,2080,78C2146.6666666666665,80.91666666666667,2173.3333333333335,10.208333333333334,2240,5C2306.6666666666665,-0.20833333333333393,2314.5833333333335,-29.291666666666657,2400,53C2485.4166666666665,135.29166666666666,3254.1666666666665,223.54166666666669,2650,400C2045.8333333333335,576.4583333333333,156.25,795.8333333333334,-500,900" transform="matrix(1,0,0,1,0,290)" opacity="0.40"></path><path d="M-10,10C25.416666666666664,16.458333333333336,91.25,45.166666666666664,160,41C228.75,36.833333333333336,253.33333333333331,-13.75,320,-10C386.6666666666667,-6.25,413.3333333333333,60.25,480,59C546.6666666666666,57.75,573.3333333333334,-11.208333333333332,640,-16C706.6666666666666,-20.791666666666668,733.3333333333334,36.208333333333336,800,36C866.6666666666666,35.791666666666664,893.3333333333334,-15.333333333333334,960,-17C1026.6666666666667,-18.666666666666668,1053.3333333333333,27.166666666666668,1120,28C1186.6666666666667,28.833333333333332,1213.3333333333333,-25.291666666666668,1280,-13C1346.6666666666667,-0.7083333333333321,1373.3333333333333,94.08333333333333,1440,87C1506.6666666666667,79.91666666666667,1533.3333333333333,-41.791666666666664,1600,-47C1666.6666666666667,-52.208333333333336,1693.3333333333333,54.083333333333336,1760,62C1826.6666666666667,69.91666666666667,1853.3333333333333,-12.333333333333332,1920,-9C1986.6666666666667,-5.666666666666667,2013.3333333333333,75.08333333333333,2080,78C2146.6666666666665,80.91666666666667,2173.3333333333335,10.208333333333334,2240,5C2306.6666666666665,-0.20833333333333393,2314.5833333333335,-29.291666666666657,2400,53C2485.4166666666665,135.29166666666666,3254.1666666666665,223.54166666666669,2650,400C2045.8333333333335,576.4583333333333,156.25,795.8333333333334,-500,900" transform="matrix(1,0,0,1,0,348)" opacity="0.48"></path><path d="M-10,10C25.416666666666664,16.458333333333336,91.25,45.166666666666664,160,41C228.75,36.833333333333336,253.33333333333331,-13.75,320,-10C386.6666666666667,-6.25,413.3333333333333,60.25,480,59C546.6666666666666,57.75,573.3333333333334,-11.208333333333332,640,-16C706.6666666666666,-20.791666666666668,733.3333333333334,36.208333333333336,800,36C866.6666666666666,35.791666666666664,893.3333333333334,-15.333333333333334,960,-17C1026.6666666666667,-18.666666666666668,1053.3333333333333,27.166666666666668,1120,28C1186.6666666666667,28.833333333333332,1213.3333333333333,-25.291666666666668,1280,-13C1346.6666666666667,-0.7083333333333321,1373.3333333333333,94.08333333333333,1440,87C1506.6666666666667,79.91666666666667,1533.3333333333333,-41.791666666666664,1600,-47C1666.6666666666667,-52.208333333333336,1693.3333333333333,54.083333333333336,1760,62C1826.6666666666667,69.91666666666667,1853.3333333333333,-12.333333333333332,1920,-9C1986.6666666666667,-5.666666666666667,2013.3333333333333,75.08333333333333,2080,78C2146.6666666666665,80.91666666666667,2173.3333333333335,10.208333333333334,2240,5C2306.6666666666665,-0.20833333333333393,2314.5833333333335,-29.291666666666657,2400,53C2485.4166666666665,135.29166666666666,3254.1666666666665,223.54166666666669,2650,400C2045.8333333333335,576.4583333333333,156.25,795.8333333333334,-500,900" transform="matrix(1,0,0,1,0,406)" opacity="0.57"></path><path d="M-10,10C25.416666666666664,16.458333333333336,91.25,45.166666666666664,160,41C228.75,36.833333333333336,253.33333333333331,-13.75,320,-10C386.6666666666667,-6.25,413.3333333333333,60.25,480,59C546.6666666666666,57.75,573.3333333333334,-11.208333333333332,640,-16C706.6666666666666,-20.791666666666668,733.3333333333334,36.208333333333336,800,36C866.6666666666666,35.791666666666664,893.3333333333334,-15.333333333333334,960,-17C1026.6666666666667,-18.666666666666668,1053.3333333333333,27.166666666666668,1120,28C1186.6666666666667,28.833333333333332,1213.3333333333333,-25.291666666666668,1280,-13C1346.6666666666667,-0.7083333333333321,1373.3333333333333,94.08333333333333,1440,87C1506.6666666666667,79.91666666666667,1533.3333333333333,-41.791666666666664,1600,-47C1666.6666666666667,-52.208333333333336,1693.3333333333333,54.083333333333336,1760,62C1826.6666666666667,69.91666666666667,1853.3333333333333,-12.333333333333332,1920,-9C1986.6666666666667,-5.666666666666667,2013.3333333333333,75.08333333333333,2080,78C2146.6666666666665,80.91666666666667,2173.3333333333335,10.208333333333334,2240,5C2306.6666666666665,-0.20833333333333393,2314.5833333333335,-29.291666666666657,2400,53C2485.4166666666665,135.29166666666666,3254.1666666666665,223.54166666666669,2650,400C2045.8333333333335,576.4583333333333,156.25,795.8333333333334,-500,900" transform="matrix(1,0,0,1,0,464)" opacity="0.65"></path><path d="M-10,10C25.416666666666664,16.458333333333336,91.25,45.166666666666664,160,41C228.75,36.833333333333336,253.33333333333331,-13.75,320,-10C386.6666666666667,-6.25,413.3333333333333,60.25,480,59C546.6666666666666,57.75,573.3333333333334,-11.208333333333332,640,-16C706.6666666666666,-20.791666666666668,733.3333333333334,36.208333333333336,800,36C866.6666666666666,35.791666666666664,893.3333333333334,-15.333333333333334,960,-17C1026.6666666666667,-18.666666666666668,1053.3333333333333,27.166666666666668,1120,28C1186.6666666666667,28.833333333333332,1213.3333333333333,-25.291666666666668,1280,-13C1346.6666666666667,-0.7083333333333321,1373.3333333333333,94.08333333333333,1440,87C1506.6666666666667,79.91666666666667,1533.3333333333333,-41.791666666666664,1600,-47C1666.6666666666667,-52.208333333333336,1693.3333333333333,54.083333333333336,1760,62C1826.6666666666667,69.91666666666667,1853.3333333333333,-12.333333333333332,1920,-9C1986.6666666666667,-5.666666666666667,2013.3333333333333,75.08333333333333,2080,78C2146.6666666666665,80.91666666666667,2173.3333333333335,10.208333333333334,2240,5C2306.6666666666665,-0.20833333333333393,2314.5833333333335,-29.291666666666657,2400,53C2485.4166666666665,135.29166666666666,3254.1666666666665,223.54166666666669,2650,400C2045.8333333333335,576.4583333333333,156.25,795.8333333333334,-500,900" transform="matrix(1,0,0,1,0,522)" opacity="0.74"></path><path d="M-10,10C25.416666666666664,16.458333333333336,91.25,45.166666666666664,160,41C228.75,36.833333333333336,253.33333333333331,-13.75,320,-10C386.6666666666667,-6.25,413.3333333333333,60.25,480,59C546.6666666666666,57.75,573.3333333333334,-11.208333333333332,640,-16C706.6666666666666,-20.791666666666668,733.3333333333334,36.208333333333336,800,36C866.6666666666666,35.791666666666664,893.3333333333334,-15.333333333333334,960,-17C1026.6666666666667,-18.666666666666668,1053.3333333333333,27.166666666666668,1120,28C1186.6666666666667,28.833333333333332,1213.3333333333333,-25.291666666666668,1280,-13C1346.6666666666667,-0.7083333333333321,1373.3333333333333,94.08333333333333,1440,87C1506.6666666666667,79.91666666666667,1533.3333333333333,-41.791666666666664,1600,-47C1666.6666666666667,-52.208333333333336,1693.3333333333333,54.083333333333336,1760,62C1826.6666666666667,69.91666666666667,1853.3333333333333,-12.333333333333332,1920,-9C1986.6666666666667,-5.666666666666667,2013.3333333333333,75.08333333333333,2080,78C2146.6666666666665,80.91666666666667,2173.3333333333335,10.208333333333334,2240,5C2306.6666666666665,-0.20833333333333393,2314.5833333333335,-29.291666666666657,2400,53C2485.4166666666665,135.29166666666666,3254.1666666666665,223.54166666666669,2650,400C2045.8333333333335,576.4583333333333,156.25,795.8333333333334,-500,900" transform="matrix(1,0,0,1,0,580)" opacity="0.83"></path><path d="M-10,10C25.416666666666664,16.458333333333336,91.25,45.166666666666664,160,41C228.75,36.833333333333336,253.33333333333331,-13.75,320,-10C386.6666666666667,-6.25,413.3333333333333,60.25,480,59C546.6666666666666,57.75,573.3333333333334,-11.208333333333332,640,-16C706.6666666666666,-20.791666666666668,733.3333333333334,36.208333333333336,800,36C866.6666666666666,35.791666666666664,893.3333333333334,-15.333333333333334,960,-17C1026.6666666666667,-18.666666666666668,1053.3333333333333,27.166666666666668,1120,28C1186.6666666666667,28.833333333333332,1213.3333333333333,-25.291666666666668,1280,-13C1346.6666666666667,-0.7083333333333321,1373.3333333333333,94.08333333333333,1440,87C1506.6666666666667,79.91666666666667,1533.3333333333333,-41.791666666666664,1600,-47C1666.6666666666667,-52.208333333333336,1693.3333333333333,54.083333333333336,1760,62C1826.6666666666667,69.91666666666667,1853.3333333333333,-12.333333333333332,1920,-9C1986.6666666666667,-5.666666666666667,2013.3333333333333,75.08333333333333,2080,78C2146.6666666666665,80.91666666666667,2173.3333333333335,10.208333333333334,2240,5C2306.6666666666665,-0.20833333333333393,2314.5833333333335,-29.291666666666657,2400,53C2485.4166666666665,135.29166666666666,3254.1666666666665,223.54166666666669,2650,400C2045.8333333333335,576.4583333333333,156.25,795.8333333333334,-500,900" transform="matrix(1,0,0,1,0,638)" opacity="0.91"></path><path d="M-10,10C25.416666666666664,16.458333333333336,91.25,45.166666666666664,160,41C228.75,36.833333333333336,253.33333333333331,-13.75,320,-10C386.6666666666667,-6.25,413.3333333333333,60.25,480,59C546.6666666666666,57.75,573.3333333333334,-11.208333333333332,640,-16C706.6666666666666,-20.791666666666668,733.3333333333334,36.208333333333336,800,36C866.6666666666666,35.791666666666664,893.3333333333334,-15.333333333333334,960,-17C1026.6666666666667,-18.666666666666668,1053.3333333333333,27.166666666666668,1120,28C1186.6666666666667,28.833333333333332,1213.3333333333333,-25.291666666666668,1280,-13C1346.6666666666667,-0.7083333333333321,1373.3333333333333,94.08333333333333,1440,87C1506.6666666666667,79.91666666666667,1533.3333333333333,-41.791666666666664,1600,-47C1666.6666666666667,-52.208333333333336,1693.3333333333333,54.083333333333336,1760,62C1826.6666666666667,69.91666666666667,1853.3333333333333,-12.333333333333332,1920,-9C1986.6666666666667,-5.666666666666667,2013.3333333333333,75.08333333333333,2080,78C2146.6666666666665,80.91666666666667,2173.3333333333335,10.208333333333334,2240,5C2306.6666666666665,-0.20833333333333393,2314.5833333333335,-29.291666666666657,2400,53C2485.4166666666665,135.29166666666666,3254.1666666666665,223.54166666666669,2650,400C2045.8333333333335,576.4583333333333,156.25,795.8333333333334,-500,900" transform="matrix(1,0,0,1,0,696)" opacity="1.00"></path></g></svg>